<svg width="23" height="26" viewBox="0 0 23 26" fill="none" xmlns="http://www.w3.org/2000/svg">
<path d="M1 6.61121C1 5.93344 1.26924 5.28343 1.7485 4.80417C2.22776 4.32491 2.87778 4.05566 3.55555 4.05566H18.8889C19.5666 4.05566 20.2166 4.32491 20.6959 4.80417C21.1752 5.28343 21.4444 5.93344 21.4444 6.61121V21.9445C21.4444 22.6223 21.1752 23.2723 20.6959 23.7516C20.2166 24.2308 19.5666 24.5001 18.8889 24.5001H3.55555C2.87778 24.5001 2.22776 24.2308 1.7485 23.7516C1.26924 23.2723 1 22.6223 1 21.9445V6.61121Z" stroke="black" stroke-width="1.5" stroke-linecap="round" stroke-linejoin="round"/>
<path d="M16.3334 1.5V6.6111" stroke="black" stroke-width="1.5" stroke-linecap="round" stroke-linejoin="round"/>
<path d="M6.11096 1.5V6.6111" stroke="black" stroke-width="1.5" stroke-linecap="round" stroke-linejoin="round"/>
<path d="M1 11.7223H21.4444" stroke="black" stroke-width="1.5" stroke-linecap="round" stroke-linejoin="round"/>
<path d="M6.11096 16.8334H8.66651V19.3889H6.11096V16.8334Z" stroke="black" stroke-width="1.5" stroke-linecap="round" stroke-linejoin="round"/>
</svg>
